<svg xmlns="http://www.w3.org/2000/svg" viewBox="0 0 2428.0532 857.52002"><path d="M871.268 379.941c1.512-40.004 30.007-78.61 66.092-95.945 28.697-13.784 64.256-19.021 94.247-19.021 55.642 0 91.417 29.81 109.968 68.234 24.508-37.762 60.944-68.234 120.566-68.234 78.832 0 127.192 52.997 127.192 137.79V592.23c0 15.566-12.853 27.352-28.04 25.678-13.306-1.466-22.973-13.486-22.973-26.872V414.69c0-66.247-33.12-103.344-88.765-103.344-51.674 0-94.071 38.422-94.071 105.993v173.695c0 13.386-9.661 25.406-22.967 26.872-15.197 1.674-28.044-10.112-28.044-25.678V413.365c0-64.257-33.784-102.018-88.104-102.018-54.322 0-95.394 45.048-95.394 107.98v172.902c0 13.404-10.211 25.055-23.595 25.792-15.333.847-27.415-10.694-27.415-25.792l1.303-212.288M1783.493 445.164v-1.325c0-73.532-54.986-133.816-127.2-133.816-74.186 0-125.2 60.284-125.2 132.49v1.326c0 73.533 54.32 133.154 126.534 133.154 74.186 0 125.866-59.621 125.866-131.829zm-304.733 0v-1.325c0-96.72 75.52-178.864 178.867-178.864 102.68 0 178.2 80.82 178.2 177.538v1.326c0 96.718-76.187 178.862-179.534 178.862-102.68 0-177.533-80.818-177.533-177.537M2221.36 444.503v-1.326c0-80.82-55.642-132.491-120.56-132.491-63.595 0-123.883 53.658-123.883 131.828v1.327c0 79.493 60.288 132.49 123.882 132.49 66.244 0 120.562-49.023 120.562-131.828zm-293.46-290.82c0-14.572 11.257-25.834 25.179-25.834 14.562 0 25.82 11.262 25.82 25.835v187.475c27.828-41.072 68.238-76.181 131.176-76.181 82.146 0 163.623 64.92 163.623 177.536v1.327c0 111.955-80.821 178.2-163.623 178.2-63.607 0-104.674-34.447-131.177-72.87v43.06c0 13.911-10.601 25.835-25.178 25.835-14.563 0-25.82-11.924-25.82-25.835V153.684M2372.399 294.785c0-13.913 11.276-25.837 25.173-25.837 14.583 0 25.845 11.263 25.845 25.837v297.443c0 14.576-10.606 25.837-25.174 25.837s-25.844-11.261-25.844-25.837zm-4.618-129.844c0-16.56 13.242-27.16 29.791-27.16 17.235 0 30.492 10.6 30.492 27.16v8.612c0 15.9-13.257 27.163-30.492 27.163-16.549 0-29.791-11.262-29.791-27.163v-8.612M523.607 485.819c-39.178-43.471-86.119-76.07-139.746-99.311-10.757-7.644-9.204-24.068 2.795-29.561 57.87-18.172 110.003-41.796 155.877-71.368 12-5.494 25.447 4.062 24.206 17.201-15.739 43.224-17.771 104.53-16.134 170.677-1.241 13.139-16.241 20.007-26.998 12.362zM709.079.529C645.92-5.527 589.812 40.761 583.752 103.92c-1.88 19.597 1.284 38.514 8.423 55.469-25.903 47.26-64.495 80.155-130.275 114.221-49.72 25.754-118.43 38.81-204.221 38.812-18.727 0-35.995-.641-50.632-1.486-18.707-25.12-47.554-42.542-81.193-45.771C62.702 259.108 6.593 305.391.534 368.552c-6.06 63.155 40.222 119.263 103.38 125.323 54.143 5.194 103.094-28.075 119.79-77.463 20.69-6.235 40.404-9.227 60.307-9.227 54.588 0 106.798 22.358 169.286 72.492 65.344 52.428 88.676 117.627 97.002 175.379-22.006 18.676-37.042 45.605-40.016 76.605-6.059 63.157 40.224 119.267 103.381 125.326 63.157 6.06 119.267-40.226 125.325-103.384 5.915-61.639-38.03-116.555-98.857-124.794-35.7-64.32-56.883-159.033-46.16-228.714 10.763-69.94 39.212-129.383 81.776-172.515 3.727.735 7.524 1.295 11.385 1.665 63.164 6.059 119.268-40.232 125.327-103.386C818.52 62.7 772.236 6.589 709.079.529" fill="#191c23"/><path d="M698.24 197.407a83.64 83.64 0 0 1-8.013-.386c-21.938-2.102-41.743-12.625-55.768-29.626-14.023-17-20.59-38.446-18.484-60.386 4.084-42.552 39.337-74.641 82.001-74.641 2.656 0 5.35.128 8.013.385 45.283 4.346 78.592 44.726 74.248 90.014-4.082 42.55-39.333 74.64-81.997 74.64" fill="#bd1f2c"/><path d="M624.773 825.148a84.62 84.62 0 0 1-8.017-.384c-21.94-2.105-41.743-12.628-55.768-29.627-14.023-17-20.587-38.445-18.481-60.384 4.081-42.552 39.333-74.638 81.994-74.638 2.655 0 5.351.129 8.016.386 45.286 4.344 78.594 44.723 74.251 90.01-4.084 42.55-39.332 74.637-81.995 74.637" fill="#58bf3c"/><path d="M115.023 462.036c-2.655 0-5.353-.13-8.018-.384-21.939-2.104-41.742-12.627-55.768-29.628-14.022-16.999-20.585-38.444-18.48-60.38 4.082-42.552 39.332-74.641 81.994-74.641 2.655 0 5.349.129 8.012.386 45.286 4.344 78.597 44.726 74.256 90.011-4.086 42.55-39.334 74.636-81.996 74.636" fill="#d1ce14"/></svg>