<?xml version="1.0" encoding="UTF-8" standalone="no"?>
<svg xmlns:dc="http://purl.org/dc/elements/1.1/" xmlns:cc="http://creativecommons.org/ns#" xmlns:rdf="http://www.w3.org/1999/02/22-rdf-syntax-ns#" xmlns:svg="http://www.w3.org/2000/svg" xmlns="http://www.w3.org/2000/svg" viewBox="0 0 2428.0532 857.52002" xml:space="preserve" id="svg2" version="1.1">
    <metadata id="metadata8">
        <rdf:RDF>
            <cc:Work rdf:about="">
                <dc:format>image/svg+xml</dc:format>
                <dc:type rdf:resource="http://purl.org/dc/dcmitype/StillImage" />
            </cc:Work>
        </rdf:RDF>
    </metadata>
    <defs id="defs6" />
    <g transform="matrix(1.3333333,0,0,-1.3333333,0,857.52)" id="g10">
        <g transform="scale(0.1)" id="g12">
            <path id="path14" style="fill:#ffffff;fill-opacity:1;fill-rule:nonzero;stroke:none" d="m 6534.51,3581.84 c 11.34,300.03 225.05,589.58 495.69,719.59 215.23,103.38 481.92,142.66 706.85,142.66 417.32,0 685.63,-223.58 824.76,-511.76 183.81,283.22 457.08,511.76 904.25,511.76 591.24,0 953.94,-397.48 953.94,-1033.43 V 1989.68 c 0,-116.74 -96.4,-205.14 -210.3,-192.58 -99.8,10.99 -172.3,101.14 -172.3,201.54 v 1322.58 c 0,496.85 -248.4,775.08 -665.74,775.08 -387.55,0 -705.53,-288.17 -705.53,-794.95 V 1998.64 c 0,-100.4 -72.46,-190.55 -172.25,-201.54 -113.98,-12.56 -210.33,75.84 -210.33,192.58 v 1341.48 c 0,481.93 -253.38,765.14 -660.78,765.14 -407.42,0 -715.46,-337.86 -715.46,-809.85 V 1989.68 c 0,-100.53 -76.58,-187.91 -176.96,-193.44 -115,-6.35 -205.61,80.21 -205.61,193.44 l 9.77,1592.16" />
            <path id="path16" style="fill:#ffffff;fill-opacity:1;fill-rule:nonzero;stroke:none" d="m 13376.2,3092.67 v 9.94 c 0,551.49 -412.4,1003.62 -954,1003.62 -556.4,0 -939,-452.13 -939,-993.68 v -9.94 c 0,-551.5 407.4,-998.66 949,-998.66 556.4,0 944,447.16 944,988.72 z m -2285.5,0 v 9.94 c 0,725.4 566.4,1341.48 1341.5,1341.48 770.1,0 1336.5,-606.15 1336.5,-1331.54 v -9.94 c 0,-725.39 -571.4,-1341.47 -1346.5,-1341.47 -770.1,0 -1331.5,606.14 -1331.5,1331.53" />
            <g transform="scale(1.04618)" id="g18">
                <path id="path20" style="fill:#ffffff;fill-opacity:1;fill-rule:nonzero;stroke:none" d="m 15924.8,2960.89 v 9.51 c 0,579.39 -398.9,949.82 -864.3,949.82 -455.9,0 -888.1,-384.67 -888.1,-945.07 v -9.51 c 0,-569.88 432.2,-949.81 888.1,-949.81 474.9,0 864.3,351.44 864.3,945.06 z M 13821,5045.76 c 0,104.47 80.7,185.21 180.5,185.21 104.4,0 185.1,-80.74 185.1,-185.21 v -1344 c 199.5,294.44 489.2,546.14 940.4,546.14 588.9,0 1173,-465.41 1173,-1272.75 v -9.51 c 0,-802.6 -579.4,-1277.5 -1173,-1277.5 -456,0 -750.4,246.94 -940.4,522.4 v -308.7 c 0,-99.73 -76,-185.21 -180.5,-185.21 -104.4,0 -185.1,85.48 -185.1,185.21 v 3143.92" />
            </g>
            <g transform="scale(1.11718)" id="g22">
                <path id="path24" style="fill:#ffffff;fill-opacity:1;fill-rule:nonzero;stroke:none" d="m 15926.7,3777.83 c 0,93.4 75.7,173.45 169,173.45 97.9,0 173.5,-75.61 173.5,-173.45 V 1780.99 c 0,-97.85 -71.2,-173.45 -169,-173.45 -97.8,0 -173.5,75.6 -173.5,173.45 z m -31,871.68 c 0,111.18 88.9,182.34 200,182.34 115.7,0 204.7,-71.16 204.7,-182.34 v -57.81 c 0,-106.75 -89,-182.36 -204.7,-182.36 -111.1,0 -200,75.61 -200,182.36 v 57.81" />
            </g>
            <path id="path26" style="fill:#ffffff;fill-opacity:1;fill-rule:nonzero;stroke:none" d="m 3927.05,2787.76 c -293.83,326.03 -645.89,570.52 -1048.09,744.83 -80.68,57.33 -69.03,180.51 20.96,221.71 434.03,136.29 825.02,313.47 1169.08,535.26 90,41.2 190.85,-30.47 181.54,-129.01 -118.04,-324.18 -133.28,-783.97 -121,-1280.08 -9.31,-98.54 -121.81,-150.05 -202.49,-92.71 z m 1391.04,3639.67 c -473.68,45.42 -894.5,-301.74 -939.95,-775.42 -14.1,-146.98 9.63,-288.86 63.17,-416.02 -194.27,-354.45 -483.71,-601.16 -977.06,-856.66 -372.9,-193.15 -888.23,-291.07 -1531.66,-291.09 -140.45,0 -269.96,4.81 -379.74,11.15 -140.3,188.4 -356.65,319.06 -608.948,343.28 C 470.262,4488.09 49.4453,4140.97 4,3667.26 -41.4492,3193.6 305.672,2772.79 779.359,2727.34 c 406.071,-38.96 773.201,210.56 898.421,580.97 155.17,46.76 303.03,69.2 452.3,69.2 409.41,0 800.99,-167.68 1269.65,-543.69 490.08,-393.21 665.07,-882.2 727.51,-1315.34 C 3962.2,1378.41 3849.43,1176.44 3827.12,943.941 3781.68,470.262 4128.8,49.4414 4602.48,4 c 473.68,-45.4492 894.5,301.691 939.94,775.379 44.36,462.291 -285.23,874.161 -741.43,935.951 -267.75,482.4 -426.62,1192.75 -346.2,1715.36 80.72,524.55 294.09,970.37 613.32,1293.86 27.95,-5.51 56.43,-9.71 85.39,-12.49 473.73,-45.44 894.51,301.74 939.95,775.4 45.45,473.69 -301.68,894.52 -775.36,939.97" />
            <path id="path28" style="fill:#bd1f2c;fill-opacity:1;fill-rule:nonzero;stroke:none" d="m 5236.8,4950.85 c -19.9,0 -40.14,0.96 -60.1,2.89 -164.53,15.77 -313.07,94.69 -418.26,222.2 -105.17,127.5 -154.42,288.34 -138.63,452.89 30.63,319.14 295.03,559.81 615.01,559.81 19.92,0 40.12,-0.96 60.1,-2.89 339.62,-32.59 589.44,-335.44 556.86,-675.1 -30.62,-319.13 -295,-559.8 -614.98,-559.8" />
            <path id="path30" style="fill:#58bf3c;fill-opacity:1;fill-rule:nonzero;stroke:none" d="m 4685.8,242.789 c -19.91,0 -40.15,0.973 -60.13,2.883 -164.55,15.789 -313.07,94.707 -418.26,222.199 -105.17,127.5 -154.4,288.34 -138.61,452.879 30.61,319.14 295,559.79 614.96,559.79 19.91,0 40.13,-0.97 60.12,-2.9 339.64,-32.58 589.45,-335.42 556.88,-675.077 C 5270.13,483.449 5005.77,242.789 4685.8,242.789" />
            <path id="path32" style="fill:#d1ce14;fill-opacity:1;fill-rule:nonzero;stroke:none" d="m 862.676,2966.13 c -19.914,0 -40.153,0.97 -60.137,2.88 -164.543,15.78 -313.066,94.7 -418.258,222.21 -105.168,127.49 -154.394,288.33 -138.609,452.85 30.617,319.14 294.996,559.81 614.957,559.81 19.914,0 40.121,-0.97 60.09,-2.9 339.651,-32.58 589.481,-335.44 556.921,-675.08 -30.64,-319.12 -295,-559.77 -614.964,-559.77" />
        </g>
    </g>
</svg>